<!DOCTYPE svg PUBLIC "-//W3C//DTD SVG 1.1//EN" "http://www.w3.org/Graphics/SVG/1.1/DTD/svg11.dtd">
<!-- Uploaded to: SVG Repo, www.svgrepo.com, Transformed by: SVG Repo Mixer Tools -->
<svg fill="#ffffff" height="800px" width="800px" version="1.1" id="Layer_1" xmlns="http://www.w3.org/2000/svg" xmlns:xlink="http://www.w3.org/1999/xlink" viewBox="0 0 503.716 503.716" xml:space="preserve" stroke="#ffffff">
<g id="SVGRepo_bgCarrier" stroke-width="0"/>
<g id="SVGRepo_tracerCarrier" stroke-linecap="round" stroke-linejoin="round"/>
<g id="SVGRepo_iconCarrier"> <g> <g> <g> <path d="M193.104,33.578h-67.148c-4.636,0-8.393,3.758-8.393,8.393v25.18c0,4.636,3.758,8.393,8.393,8.393h67.148 c4.636,0,8.393-3.758,8.393-8.393v-25.18C201.497,37.336,197.739,33.578,193.104,33.578z M184.71,58.758H134.35v-8.393h50.361 V58.758z"/> <path d="M428.12,0h-33.574c-4.636,0-8.393,3.758-8.393,8.393v394.601c0,27.738-22.572,50.252-50.361,50.252l-100.73,0.109 c-27.779,0-50.352-22.513-50.352-50.243v-17.011c9.27,0,16.787-7.511,16.787-16.787V335.74h33.574 c9.27,0,16.787-7.511,16.787-16.787V142.691c0-9.276-7.517-16.787-16.787-16.787h-8.393V25.183 c0-13.902-11.278-25.18-25.18-25.18h-83.934c-13.902,0-25.18,11.278-25.18,25.18v100.721h-8.393 c-9.27,0-16.787,7.511-16.787,16.787v176.262c0,9.276,7.516,16.787,16.787,16.787h33.574v33.574 c0,9.276,7.517,16.787,16.787,16.787v17.011c0,55.523,45.16,100.604,100.721,100.604l100.73-0.109 c55.55,0,100.712-45.088,100.712-100.612V8.393C436.514,3.758,432.756,0,428.12,0z M109.169,25.183 c0-4.631,3.763-8.393,8.393-8.393h83.934c4.631,0,8.393,3.763,8.393,8.393v100.721H109.169V25.183z M83.989,142.691h16.787 h117.508h16.787v176.262h-41.967h-67.148H83.989V142.691z M184.71,335.74v33.574h-8.344c-0.017,0-0.033-0.003-0.05-0.003h-33.574 c-0.017,0-0.033,0.002-0.05,0.003h-8.344V335.74H184.71z M419.727,402.994c0,46.247-37.64,83.825-83.934,83.825l-100.73,0.109 c-46.287,0-83.925-37.572-83.925-83.817v-17.011h16.787v17.011c0,37.011,30.099,67.03,67.148,67.03l100.73-0.109 c37.041,0,67.138-30.02,67.138-67.038V16.787h16.787V402.994z"/> </g> </g> </g> </g>
</svg>